<?xml version="1.0" encoding="UTF-8" standalone="no"?>
<!DOCTYPE svg PUBLIC "-//W3C//DTD SVG 1.1//EN"
 "http://www.w3.org/Graphics/SVG/1.1/DTD/svg11.dtd">
<!-- Generated by graphviz version 2.38.0 (20140413.2041)
 -->
<!-- Title: models_diagram Pages: 1 -->
<svg width="391pt" height="225pt"
 viewBox="0.00 0.00 391.45 225.00" xmlns="http://www.w3.org/2000/svg" xmlns:xlink="http://www.w3.org/1999/xlink">
<g id="graph0" class="graph" transform="scale(1 1) rotate(0) translate(4 221)">
<title>models_diagram</title>
<polygon fill="none" stroke="none" points="-4,4 -4,-221 387.45,-221 387.45,4 -4,4"/>
<!-- _diagram_info -->
<g id="node1" class="node"><title>_diagram_info</title>
<text text-anchor="start" x="8" y="-202.6" font-family="Times,serif" font-size="13.00">Models diagram</text>
<text text-anchor="start" x="8" y="-189.6" font-family="Times,serif" font-size="13.00">Date: Oct 27 2016 &#45; 21:35</text>
<text text-anchor="start" x="8" y="-176.6" font-family="Times,serif" font-size="13.00">Migration version: 20161028015119</text>
<text text-anchor="start" x="8" y="-163.6" font-family="Times,serif" font-size="13.00">Generated by RailRoady 1.5.2</text>
<text text-anchor="start" x="8" y="-150.6" font-family="Times,serif" font-size="13.00">http://railroady.prestonlee.com</text>
</g>
<!-- Category -->
<g id="node2" class="node"><title>Category</title>
<ellipse fill="none" stroke="black" cx="267.45" cy="-180.5" rx="42.5456" ry="18"/>
<text text-anchor="middle" x="267.45" y="-176.3" font-family="Times,serif" font-size="14.00">Category</text>
</g>
<!-- Inventory -->
<g id="node3" class="node"><title>Inventory</title>
<ellipse fill="none" stroke="black" cx="267.45" cy="-90" rx="44.475" ry="18"/>
<text text-anchor="middle" x="267.45" y="-85.8" font-family="Times,serif" font-size="14.00">Inventory</text>
</g>
<!-- Category&#45;&gt;Inventory -->
<g id="edge1" class="edge"><title>Category&#45;&gt;Inventory</title>
<path fill="none" stroke="#d3dedb" d="M267.45,-154.189C267.45,-142.971 267.45,-129.752 267.45,-118.311"/>
<ellipse fill="none" stroke="#d3dedb" cx="267.45" cy="-158.436" rx="4" ry="4"/>
<polygon fill="#d3dedb" stroke="#d3dedb" points="267.45,-118.011 271.95,-108.011 267.45,-113.011 267.45,-108.011 267.45,-108.011 267.45,-108.011 267.45,-113.011 262.95,-108.011 267.45,-118.011 267.45,-118.011"/>
</g>
<!-- Work -->
<g id="node5" class="node"><title>Work</title>
<ellipse fill="none" stroke="black" cx="311.45" cy="-18" rx="29.5766" ry="18"/>
<text text-anchor="middle" x="311.45" y="-13.8" font-family="Times,serif" font-size="14.00">Work</text>
</g>
<!-- Inventory&#45;&gt;Work -->
<g id="edge2" class="edge"><title>Inventory&#45;&gt;Work</title>
<path fill="none" stroke="#419d5f" d="M282.271,-65.4214C286.991,-57.911 292.208,-49.6125 296.908,-42.1339"/>
<ellipse fill="none" stroke="#419d5f" cx="280.006" cy="-69.0244" rx="4.00002" ry="4.00002"/>
<ellipse fill="#419d5f" stroke="#419d5f" cx="299.271" cy="-38.3747" rx="4.00002" ry="4.00002"/>
</g>
<!-- User -->
<g id="node4" class="node"><title>User</title>
<ellipse fill="none" stroke="black" cx="356.45" cy="-90" rx="27" ry="18"/>
<text text-anchor="middle" x="356.45" y="-85.8" font-family="Times,serif" font-size="14.00">User</text>
</g>
<!-- User&#45;&gt;Work -->
<g id="edge3" class="edge"><title>User&#45;&gt;Work</title>
<path fill="none" stroke="#c8a4bc" d="M341.739,-66.116C337.191,-59.0421 332.159,-51.2151 327.525,-44.0056"/>
<ellipse fill="none" stroke="#c8a4bc" cx="344.075" cy="-69.7512" rx="4.00002" ry="4.00002"/>
<polygon fill="#c8a4bc" stroke="#c8a4bc" points="327.34,-43.7188 325.718,-32.8736 324.637,-39.5129 321.933,-35.307 321.933,-35.307 321.933,-35.307 324.637,-39.5129 318.147,-37.7404 327.34,-43.7188 327.34,-43.7188"/>
</g>
</g>
</svg>
