<?xml version="1.0" encoding="UTF-8" standalone="no"?>
<!DOCTYPE svg PUBLIC "-//W3C//DTD SVG 1.1//EN"
 "http://www.w3.org/Graphics/SVG/1.1/DTD/svg11.dtd">
<!-- Generated by graphviz version 2.38.0 (20140413.2041)
 -->
<!-- Title: models_diagram Pages: 1 -->
<svg width="746pt" height="411pt"
 viewBox="0.00 0.00 746.31 411.00" xmlns="http://www.w3.org/2000/svg" xmlns:xlink="http://www.w3.org/1999/xlink">
<g id="graph0" class="graph" transform="scale(1 1) rotate(0) translate(4 407)">
<title>models_diagram</title>
<polygon fill="none" stroke="none" points="-4,4 -4,-407 742.312,-407 742.312,4 -4,4"/>
<!-- _diagram_info -->
<g id="node1" class="node"><title>_diagram_info</title>
<text text-anchor="start" x="8" y="-381.6" font-family="Times,serif" font-size="13.00">Models diagram</text>
<text text-anchor="start" x="8" y="-368.6" font-family="Times,serif" font-size="13.00">Date: Oct 27 2016 &#45; 21:35</text>
<text text-anchor="start" x="8" y="-355.6" font-family="Times,serif" font-size="13.00">Migration version: 20161028015119</text>
<text text-anchor="start" x="8" y="-342.6" font-family="Times,serif" font-size="13.00">Generated by RailRoady 1.5.2</text>
<text text-anchor="start" x="8" y="-329.6" font-family="Times,serif" font-size="13.00">http://railroady.prestonlee.com</text>
</g>
<!-- Category -->
<g id="node2" class="node"><title>Category</title>
<path fill="none" stroke="black" d="M236.587,-316.5C236.587,-316.5 460.312,-316.5 460.312,-316.5 466.312,-316.5 472.312,-322.5 472.312,-328.5 472.312,-328.5 472.312,-390.5 472.312,-390.5 472.312,-396.5 466.312,-402.5 460.312,-402.5 460.312,-402.5 236.587,-402.5 236.587,-402.5 230.587,-402.5 224.587,-396.5 224.587,-390.5 224.587,-390.5 224.587,-328.5 224.587,-328.5 224.587,-322.5 230.587,-316.5 236.587,-316.5"/>
<text text-anchor="middle" x="348.45" y="-387.3" font-family="Times,serif" font-size="14.00">Category</text>
<polyline fill="none" stroke="black" points="224.587,-380.5 472.312,-380.5 "/>
<text text-anchor="start" x="232.587" y="-365.3" font-family="Times,serif" font-size="14.00">id :integer</text>
<text text-anchor="start" x="232.587" y="-351.3" font-family="Times,serif" font-size="14.00">name :character varying</text>
<text text-anchor="start" x="232.587" y="-337.3" font-family="Times,serif" font-size="14.00">created_at :timestamp without time zone</text>
<text text-anchor="start" x="232.587" y="-323.3" font-family="Times,serif" font-size="14.00">updated_at :timestamp without time zone</text>
</g>
<!-- Inventory -->
<g id="node3" class="node"><title>Inventory</title>
<path fill="none" stroke="black" d="M236.587,-151.5C236.587,-151.5 460.312,-151.5 460.312,-151.5 466.312,-151.5 472.312,-157.5 472.312,-163.5 472.312,-163.5 472.312,-267.5 472.312,-267.5 472.312,-273.5 466.312,-279.5 460.312,-279.5 460.312,-279.5 236.587,-279.5 236.587,-279.5 230.587,-279.5 224.587,-273.5 224.587,-267.5 224.587,-267.5 224.587,-163.5 224.587,-163.5 224.587,-157.5 230.587,-151.5 236.587,-151.5"/>
<text text-anchor="middle" x="348.45" y="-264.3" font-family="Times,serif" font-size="14.00">Inventory</text>
<polyline fill="none" stroke="black" points="224.587,-257.5 472.312,-257.5 "/>
<text text-anchor="start" x="232.587" y="-242.3" font-family="Times,serif" font-size="14.00">description :text</text>
<text text-anchor="start" x="232.587" y="-228.3" font-family="Times,serif" font-size="14.00">serial :character varying</text>
<text text-anchor="start" x="232.587" y="-214.3" font-family="Times,serif" font-size="14.00">size :integer</text>
<text text-anchor="start" x="232.587" y="-200.3" font-family="Times,serif" font-size="14.00">id :integer</text>
<text text-anchor="start" x="232.587" y="-186.3" font-family="Times,serif" font-size="14.00">category_id :integer</text>
<text text-anchor="start" x="232.587" y="-172.3" font-family="Times,serif" font-size="14.00">created_at :timestamp without time zone</text>
<text text-anchor="start" x="232.587" y="-158.3" font-family="Times,serif" font-size="14.00">updated_at :timestamp without time zone</text>
</g>
<!-- Category&#45;&gt;Inventory -->
<g id="edge1" class="edge"><title>Category&#45;&gt;Inventory</title>
<path fill="none" stroke="#8f84d5" d="M348.45,-308.275C348.45,-302.329 348.45,-296.171 348.45,-289.986"/>
<ellipse fill="none" stroke="#8f84d5" cx="348.45" cy="-312.28" rx="4" ry="4"/>
<polygon fill="#8f84d5" stroke="#8f84d5" points="348.45,-289.588 352.95,-279.588 348.45,-284.588 348.45,-279.588 348.45,-279.588 348.45,-279.588 348.45,-284.588 343.95,-279.588 348.45,-289.588 348.45,-289.588"/>
</g>
<!-- Work -->
<g id="node5" class="node"><title>Work</title>
<path fill="none" stroke="black" d="M369.587,-0.5C369.587,-0.5 593.312,-0.5 593.312,-0.5 599.312,-0.5 605.312,-6.5 605.312,-12.5 605.312,-12.5 605.312,-102.5 605.312,-102.5 605.312,-108.5 599.312,-114.5 593.312,-114.5 593.312,-114.5 369.587,-114.5 369.587,-114.5 363.587,-114.5 357.587,-108.5 357.587,-102.5 357.587,-102.5 357.587,-12.5 357.587,-12.5 357.587,-6.5 363.587,-0.5 369.587,-0.5"/>
<text text-anchor="middle" x="481.45" y="-99.3" font-family="Times,serif" font-size="14.00">Work</text>
<polyline fill="none" stroke="black" points="357.587,-92.5 605.312,-92.5 "/>
<text text-anchor="start" x="365.587" y="-77.3" font-family="Times,serif" font-size="14.00">id :integer</text>
<text text-anchor="start" x="365.587" y="-63.3" font-family="Times,serif" font-size="14.00">description :text</text>
<text text-anchor="start" x="365.587" y="-49.3" font-family="Times,serif" font-size="14.00">user_id :integer</text>
<text text-anchor="start" x="365.587" y="-35.3" font-family="Times,serif" font-size="14.00">inventory_id :integer</text>
<text text-anchor="start" x="365.587" y="-21.3" font-family="Times,serif" font-size="14.00">created_at :timestamp without time zone</text>
<text text-anchor="start" x="365.587" y="-7.3" font-family="Times,serif" font-size="14.00">updated_at :timestamp without time zone</text>
</g>
<!-- Inventory&#45;&gt;Work -->
<g id="edge2" class="edge"><title>Inventory&#45;&gt;Work</title>
<path fill="none" stroke="#008f76" d="M407.548,-145.181C414.341,-137.214 421.237,-129.125 427.95,-121.251"/>
<ellipse fill="none" stroke="#008f76" cx="404.758" cy="-148.455" rx="4.00002" ry="4.00002"/>
<ellipse fill="#008f76" stroke="#008f76" cx="430.944" cy="-117.739" rx="4.00002" ry="4.00002"/>
</g>
<!-- User -->
<g id="node4" class="node"><title>User</title>
<path fill="none" stroke="black" d="M502.587,-165.5C502.587,-165.5 726.312,-165.5 726.312,-165.5 732.312,-165.5 738.312,-171.5 738.312,-177.5 738.312,-177.5 738.312,-253.5 738.312,-253.5 738.312,-259.5 732.312,-265.5 726.312,-265.5 726.312,-265.5 502.587,-265.5 502.587,-265.5 496.587,-265.5 490.587,-259.5 490.587,-253.5 490.587,-253.5 490.587,-177.5 490.587,-177.5 490.587,-171.5 496.587,-165.5 502.587,-165.5"/>
<text text-anchor="middle" x="614.45" y="-250.3" font-family="Times,serif" font-size="14.00">User</text>
<polyline fill="none" stroke="black" points="490.587,-243.5 738.312,-243.5 "/>
<text text-anchor="start" x="498.587" y="-228.3" font-family="Times,serif" font-size="14.00">id :integer</text>
<text text-anchor="start" x="498.587" y="-214.3" font-family="Times,serif" font-size="14.00">name :character varying</text>
<text text-anchor="start" x="498.587" y="-200.3" font-family="Times,serif" font-size="14.00">email :character varying</text>
<text text-anchor="start" x="498.587" y="-186.3" font-family="Times,serif" font-size="14.00">created_at :timestamp without time zone</text>
<text text-anchor="start" x="498.587" y="-172.3" font-family="Times,serif" font-size="14.00">updated_at :timestamp without time zone</text>
</g>
<!-- User&#45;&gt;Work -->
<g id="edge3" class="edge"><title>User&#45;&gt;Work</title>
<path fill="none" stroke="#96edd0" d="M567.161,-159.034C557.072,-147.2 546.338,-134.609 536.002,-122.486"/>
<ellipse fill="none" stroke="#96edd0" cx="569.773" cy="-162.097" rx="4.00002" ry="4.00002"/>
<polygon fill="#96edd0" stroke="#96edd0" points="535.766,-122.209 532.702,-111.68 532.522,-118.404 529.278,-114.599 529.278,-114.599 529.278,-114.599 532.522,-118.404 525.853,-117.519 535.766,-122.209 535.766,-122.209"/>
</g>
</g>
</svg>
